<svg xmlns="http://www.w3.org/2000/svg" viewBox="-184 -95 473 368" width="473" height="368"><defs><radialGradient id="g" cx="50%" cy="55%" r="50%"><stop offset="0" stop-color="#0e7490" stop-opacity=".28"/><stop offset="1" stop-color="#0e7490" stop-opacity="0"/></radialGradient></defs><ellipse cx="52" cy="120" rx="270" ry="150" fill="url(#g)"/><g fill="#e3eafb"><path d="M14.5 15.0L0.0 23.4L0.0 -26.5L14.5 -34.9Z" fill-opacity=".45"/><path d="M-14.5 15.0L0.0 23.4L0.0 -26.5L-14.5 -34.9Z" fill-opacity=".7"/><path d="M0.0 -43.3L14.5 -34.9L0.0 -26.5L-14.5 -34.9Z"/></g><g fill="#1d4ed8"><path d="M-11.4 30.0L-26.0 38.4L-26.0 -34.2L-11.4 -42.6Z" fill-opacity=".45"/><path d="M-40.5 30.0L-26.0 38.4L-26.0 -34.2L-40.5 -42.6Z" fill-opacity=".7"/><path d="M-26.0 -51.0L-11.4 -42.6L-26.0 -34.2L-40.5 -42.6Z"/></g><g fill="#1d4ed8"><path d="M40.5 30.0L26.0 38.4L26.0 -19.4L40.5 -27.8Z" fill-opacity=".45"/><path d="M11.4 30.0L26.0 38.4L26.0 -19.4L11.4 -27.8Z" fill-opacity=".7"/><path d="M26.0 -36.2L40.5 -27.8L26.0 -19.4L11.4 -27.8Z"/></g><g fill="#0e7490"><path d="M-37.4 45.0L-52.0 53.4L-52.0 -37.0L-37.4 -45.4Z" fill-opacity=".45"/><path d="M-66.5 45.0L-52.0 53.4L-52.0 -37.0L-66.5 -45.4Z" fill-opacity=".7"/><path d="M-52.0 -53.8L-37.4 -45.4L-52.0 -37.0L-66.5 -45.4Z"/></g><g fill="#1d4ed8"><path d="M14.5 45.0L0.0 53.4L0.0 -31.4L14.5 -39.8Z" fill-opacity=".45"/><path d="M-14.5 45.0L0.0 53.4L0.0 -31.4L-14.5 -39.8Z" fill-opacity=".7"/><path d="M0.0 -48.2L14.5 -39.8L0.0 -31.4L-14.5 -39.8Z"/></g><g fill="#1d4ed8"><path d="M66.5 45.0L52.0 53.4L52.0 -4.6L66.5 -13.0Z" fill-opacity=".45"/><path d="M37.4 45.0L52.0 53.4L52.0 -4.6L37.4 -13.0Z" fill-opacity=".7"/><path d="M52.0 -21.4L66.5 -13.0L52.0 -4.6L37.4 -13.0Z"/></g><g fill="#1d4ed8"><path d="M-63.4 60.0L-77.9 68.4L-77.9 -20.2L-63.4 -28.6Z" fill-opacity=".45"/><path d="M-92.5 60.0L-77.9 68.4L-77.9 -20.2L-92.5 -28.6Z" fill-opacity=".7"/><path d="M-77.9 -37.0L-63.4 -28.6L-77.9 -20.2L-92.5 -28.6Z"/></g><g fill="#0e7490"><path d="M-11.4 60.0L-26.0 68.4L-26.0 -38.2L-11.4 -46.6Z" fill-opacity=".45"/><path d="M-40.5 60.0L-26.0 68.4L-26.0 -38.2L-40.5 -46.6Z" fill-opacity=".7"/><path d="M-26.0 -55.0L-11.4 -46.6L-26.0 -38.2L-40.5 -46.6Z"/></g><g fill="#1d4ed8"><path d="M40.5 60.0L26.0 68.4L26.0 -16.3L40.5 -24.7Z" fill-opacity=".45"/><path d="M11.4 60.0L26.0 68.4L26.0 -16.3L11.4 -24.7Z" fill-opacity=".7"/><path d="M26.0 -33.1L40.5 -24.7L26.0 -16.3L11.4 -24.7Z"/></g><g fill="#e3eafb"><path d="M92.5 60.0L77.9 68.4L77.9 18.4L92.5 10.0Z" fill-opacity=".45"/><path d="M63.4 60.0L77.9 68.4L77.9 18.4L63.4 10.0Z" fill-opacity=".7"/><path d="M77.9 1.6L92.5 10.0L77.9 18.4L63.4 10.0Z"/></g><g fill="#1d4ed8"><path d="M-89.4 75.0L-103.9 83.4L-103.9 17.3L-89.4 8.9Z" fill-opacity=".45"/><path d="M-118.5 75.0L-103.9 83.4L-103.9 17.3L-118.5 8.9Z" fill-opacity=".7"/><path d="M-103.9 0.5L-89.4 8.9L-103.9 17.3L-118.5 8.9Z"/></g><g fill="#0e7490"><path d="M-37.4 75.0L-52.0 83.4L-52.0 -20.7L-37.4 -29.1Z" fill-opacity=".45"/><path d="M-66.5 75.0L-52.0 83.4L-52.0 -20.7L-66.5 -29.1Z" fill-opacity=".7"/><path d="M-52.0 -37.5L-37.4 -29.1L-52.0 -20.7L-66.5 -29.1Z"/></g><g fill="#0e7490"><path d="M14.5 75.0L0.0 83.4L0.0 -23.5L14.5 -31.9Z" fill-opacity=".45"/><path d="M-14.5 75.0L0.0 83.4L0.0 -23.5L-14.5 -31.9Z" fill-opacity=".7"/><path d="M0.0 -40.3L14.5 -31.9L0.0 -23.5L-14.5 -31.9Z"/></g><g fill="#1d4ed8"><path d="M66.5 75.0L52.0 83.4L52.0 11.9L66.5 3.5Z" fill-opacity=".45"/><path d="M37.4 75.0L52.0 83.4L52.0 11.9L37.4 3.5Z" fill-opacity=".7"/><path d="M52.0 -4.9L66.5 3.5L52.0 11.9L37.4 3.5Z"/></g><g fill="#e3eafb"><path d="M118.5 75.0L103.9 83.4L103.9 47.4L118.5 39.0Z" fill-opacity=".45"/><path d="M89.4 75.0L103.9 83.4L103.9 47.4L89.4 39.0Z" fill-opacity=".7"/><path d="M103.9 30.6L118.5 39.0L103.9 47.4L89.4 39.0Z"/></g><g fill="#e3eafb"><path d="M-115.4 90.0L-129.9 98.4L-129.9 62.1L-115.4 53.7Z" fill-opacity=".45"/><path d="M-144.5 90.0L-129.9 98.4L-129.9 62.1L-144.5 53.7Z" fill-opacity=".7"/><path d="M-129.9 45.3L-115.4 53.7L-129.9 62.1L-144.5 53.7Z"/></g><g fill="#1d4ed8"><path d="M-63.4 90.0L-77.9 98.4L-77.9 22.7L-63.4 14.3Z" fill-opacity=".45"/><path d="M-92.5 90.0L-77.9 98.4L-77.9 22.7L-92.5 14.3Z" fill-opacity=".7"/><path d="M-77.9 5.9L-63.4 14.3L-77.9 22.7L-92.5 14.3Z"/></g><g fill="#0e7490"><path d="M-11.4 90.0L-26.0 98.4L-26.0 -5.9L-11.4 -14.3Z" fill-opacity=".45"/><path d="M-40.5 90.0L-26.0 98.4L-26.0 -5.9L-40.5 -14.3Z" fill-opacity=".7"/><path d="M-26.0 -22.7L-11.4 -14.3L-26.0 -5.9L-40.5 -14.3Z"/></g><g fill="#0e7490"><path d="M40.5 90.0L26.0 98.4L26.0 8.3L40.5 -0.1Z" fill-opacity=".45"/><path d="M11.4 90.0L26.0 98.4L26.0 8.3L11.4 -0.1Z" fill-opacity=".7"/><path d="M26.0 -8.5L40.5 -0.1L26.0 8.3L11.4 -0.1Z"/></g><g fill="#e3eafb"><path d="M92.5 90.0L77.9 98.4L77.9 49.3L92.5 40.9Z" fill-opacity=".45"/><path d="M63.4 90.0L77.9 98.4L77.9 49.3L63.4 40.9Z" fill-opacity=".7"/><path d="M77.9 32.5L92.5 40.9L77.9 49.3L63.4 40.9Z"/></g><g fill="#e3eafb"><path d="M144.5 90.0L129.9 98.4L129.9 78.2L144.5 69.8Z" fill-opacity=".45"/><path d="M115.4 90.0L129.9 98.4L129.9 78.2L115.4 69.8Z" fill-opacity=".7"/><path d="M129.9 61.4L144.5 69.8L129.9 78.2L115.4 69.8Z"/></g><g fill="#e3eafb"><path d="M-89.4 105.0L-103.9 113.4L-103.9 74.2L-89.4 65.8Z" fill-opacity=".45"/><path d="M-118.5 105.0L-103.9 113.4L-103.9 74.2L-118.5 65.8Z" fill-opacity=".7"/><path d="M-103.9 57.4L-89.4 65.8L-103.9 74.2L-118.5 65.8Z"/></g><g fill="#1d4ed8"><path d="M-37.4 105.0L-52.0 113.4L-52.0 38.3L-37.4 29.9Z" fill-opacity=".45"/><path d="M-66.5 105.0L-52.0 113.4L-52.0 38.3L-66.5 29.9Z" fill-opacity=".7"/><path d="M-52.0 21.5L-37.4 29.9L-52.0 38.3L-66.5 29.9Z"/></g><g fill="#1d4ed8"><path d="M14.5 105.0L0.0 113.4L0.0 25.5L14.5 17.1Z" fill-opacity=".45"/><path d="M-14.5 105.0L0.0 113.4L0.0 25.5L-14.5 17.1Z" fill-opacity=".7"/><path d="M0.0 8.7L14.5 17.1L0.0 25.5L-14.5 17.1Z"/></g><g fill="#1d4ed8"><path d="M66.5 105.0L52.0 113.4L52.0 52.1L66.5 43.7Z" fill-opacity=".45"/><path d="M37.4 105.0L52.0 113.4L52.0 52.1L37.4 43.7Z" fill-opacity=".7"/><path d="M52.0 35.3L66.5 43.7L52.0 52.1L37.4 43.7Z"/></g><g fill="#e3eafb"><path d="M118.5 105.0L103.9 113.4L103.9 88.8L118.5 80.4Z" fill-opacity=".45"/><path d="M89.4 105.0L103.9 113.4L103.9 88.8L89.4 80.4Z" fill-opacity=".7"/><path d="M103.9 72.0L118.5 80.4L103.9 88.8L89.4 80.4Z"/></g><g fill="#e3eafb"><path d="M170.4 105.0L155.9 113.4L155.9 105.9L170.4 97.5Z" fill-opacity=".45"/><path d="M141.3 105.0L155.9 113.4L155.9 105.9L141.3 97.5Z" fill-opacity=".7"/><path d="M155.9 89.1L170.4 97.5L155.9 105.9L141.3 97.5Z"/></g><g fill="#e3eafb"><path d="M-63.4 120.0L-77.9 128.4L-77.9 90.2L-63.4 81.8Z" fill-opacity=".45"/><path d="M-92.5 120.0L-77.9 128.4L-77.9 90.2L-92.5 81.8Z" fill-opacity=".7"/><path d="M-77.9 73.4L-63.4 81.8L-77.9 90.2L-92.5 81.8Z"/></g><g fill="#1d4ed8"><path d="M-11.4 120.0L-26.0 128.4L-26.0 65.0L-11.4 56.6Z" fill-opacity=".45"/><path d="M-40.5 120.0L-26.0 128.4L-26.0 65.0L-40.5 56.6Z" fill-opacity=".7"/><path d="M-26.0 48.2L-11.4 56.6L-26.0 65.0L-40.5 56.6Z"/></g><g fill="#1d4ed8"><path d="M40.5 120.0L26.0 128.4L26.0 68.3L40.5 59.9Z" fill-opacity=".45"/><path d="M11.4 120.0L26.0 128.4L26.0 68.3L11.4 59.9Z" fill-opacity=".7"/><path d="M26.0 51.5L40.5 59.9L26.0 68.3L11.4 59.9Z"/></g><g fill="#e3eafb"><path d="M92.5 120.0L77.9 128.4L77.9 98.2L92.5 89.8Z" fill-opacity=".45"/><path d="M63.4 120.0L77.9 128.4L77.9 98.2L63.4 89.8Z" fill-opacity=".7"/><path d="M77.9 81.4L92.5 89.8L77.9 98.2L63.4 89.8Z"/></g><g fill="#e3eafb"><path d="M144.5 120.0L129.9 128.4L129.9 120.9L144.5 112.5Z" fill-opacity=".45"/><path d="M115.4 120.0L129.9 128.4L129.9 120.9L115.4 112.5Z" fill-opacity=".7"/><path d="M129.9 104.1L144.5 112.5L129.9 120.9L115.4 112.5Z"/></g><g fill="#e3eafb"><path d="M196.4 120.0L181.9 128.4L181.9 120.9L196.4 112.5Z" fill-opacity=".45"/><path d="M167.3 120.0L181.9 128.4L181.9 120.9L167.3 112.5Z" fill-opacity=".7"/><path d="M181.9 104.1L196.4 112.5L181.9 120.9L167.3 112.5Z"/></g><g fill="#e3eafb"><path d="M-37.4 135.0L-52.0 143.4L-52.0 110.3L-37.4 101.9Z" fill-opacity=".45"/><path d="M-66.5 135.0L-52.0 143.4L-52.0 110.3L-66.5 101.9Z" fill-opacity=".7"/><path d="M-52.0 93.5L-37.4 101.9L-52.0 110.3L-66.5 101.9Z"/></g><g fill="#e3eafb"><path d="M14.5 135.0L0.0 143.4L0.0 99.0L14.5 90.6Z" fill-opacity=".45"/><path d="M-14.5 135.0L0.0 143.4L0.0 99.0L-14.5 90.6Z" fill-opacity=".7"/><path d="M0.0 82.2L14.5 90.6L0.0 99.0L-14.5 90.6Z"/></g><g fill="#e3eafb"><path d="M66.5 135.0L52.0 143.4L52.0 112.8L66.5 104.4Z" fill-opacity=".45"/><path d="M37.4 135.0L52.0 143.4L52.0 112.8L37.4 104.4Z" fill-opacity=".7"/><path d="M52.0 96.0L66.5 104.4L52.0 112.8L37.4 104.4Z"/></g><g fill="#e3eafb"><path d="M118.5 135.0L103.9 143.4L103.9 135.7L118.5 127.3Z" fill-opacity=".45"/><path d="M89.4 135.0L103.9 143.4L103.9 135.7L89.4 127.3Z" fill-opacity=".7"/><path d="M103.9 118.9L118.5 127.3L103.9 135.7L89.4 127.3Z"/></g><g fill="#e3eafb"><path d="M170.4 135.0L155.9 143.4L155.9 135.9L170.4 127.5Z" fill-opacity=".45"/><path d="M141.3 135.0L155.9 143.4L155.9 135.9L141.3 127.5Z" fill-opacity=".7"/><path d="M155.9 119.1L170.4 127.5L155.9 135.9L141.3 127.5Z"/></g><g fill="#e3eafb"><path d="M222.4 135.0L207.8 143.4L207.8 135.9L222.4 127.5Z" fill-opacity=".45"/><path d="M193.3 135.0L207.8 143.4L207.8 135.9L193.3 127.5Z" fill-opacity=".7"/><path d="M207.8 119.1L222.4 127.5L207.8 135.9L193.3 127.5Z"/></g><g fill="#e3eafb"><path d="M-11.4 150.0L-26.0 158.4L-26.0 132.8L-11.4 124.4Z" fill-opacity=".45"/><path d="M-40.5 150.0L-26.0 158.4L-26.0 132.8L-40.5 124.4Z" fill-opacity=".7"/><path d="M-26.0 116.0L-11.4 124.4L-26.0 132.8L-40.5 124.4Z"/></g><g fill="#e3eafb"><path d="M40.5 150.0L26.0 158.4L26.0 133.4L40.5 125.0Z" fill-opacity=".45"/><path d="M11.4 150.0L26.0 158.4L26.0 133.4L11.4 125.0Z" fill-opacity=".7"/><path d="M26.0 116.6L40.5 125.0L26.0 133.4L11.4 125.0Z"/></g><g fill="#e3eafb"><path d="M92.5 150.0L77.9 158.4L77.9 148.3L92.5 139.9Z" fill-opacity=".45"/><path d="M63.4 150.0L77.9 158.4L77.9 148.3L63.4 139.9Z" fill-opacity=".7"/><path d="M77.9 131.5L92.5 139.9L77.9 148.3L63.4 139.9Z"/></g><g fill="#e3eafb"><path d="M144.5 150.0L129.9 158.4L129.9 150.9L144.5 142.5Z" fill-opacity=".45"/><path d="M115.4 150.0L129.9 158.4L129.9 150.9L115.4 142.5Z" fill-opacity=".7"/><path d="M129.9 134.1L144.5 142.5L129.9 150.9L115.4 142.5Z"/></g><g fill="#e3eafb"><path d="M196.4 150.0L181.9 158.4L181.9 150.1L196.4 141.7Z" fill-opacity=".45"/><path d="M167.3 150.0L181.9 158.4L181.9 150.1L167.3 141.7Z" fill-opacity=".7"/><path d="M181.9 133.3L196.4 141.7L181.9 150.1L167.3 141.7Z"/></g><g fill="#e3eafb"><path d="M248.4 150.0L233.8 158.4L233.8 145.7L248.4 137.3Z" fill-opacity=".45"/><path d="M219.3 150.0L233.8 158.4L233.8 145.7L219.3 137.3Z" fill-opacity=".7"/><path d="M233.8 128.9L248.4 137.3L233.8 145.7L219.3 137.3Z"/></g><g fill="#e3eafb"><path d="M14.5 165.0L0.0 173.4L0.0 154.6L14.5 146.2Z" fill-opacity=".45"/><path d="M-14.5 165.0L0.0 173.4L0.0 154.6L-14.5 146.2Z" fill-opacity=".7"/><path d="M0.0 137.8L14.5 146.2L0.0 154.6L-14.5 146.2Z"/></g><g fill="#e3eafb"><path d="M66.5 165.0L52.0 173.4L52.0 160.7L66.5 152.3Z" fill-opacity=".45"/><path d="M37.4 165.0L52.0 173.4L52.0 160.7L37.4 152.3Z" fill-opacity=".7"/><path d="M52.0 143.9L66.5 152.3L52.0 160.7L37.4 152.3Z"/></g><g fill="#e3eafb"><path d="M118.5 165.0L103.9 173.4L103.9 165.9L118.5 157.5Z" fill-opacity=".45"/><path d="M89.4 165.0L103.9 173.4L103.9 165.9L89.4 157.5Z" fill-opacity=".7"/><path d="M103.9 149.1L118.5 157.5L103.9 165.9L89.4 157.5Z"/></g><g fill="#e3eafb"><path d="M170.4 165.0L155.9 173.4L155.9 157.6L170.4 149.2Z" fill-opacity=".45"/><path d="M141.3 165.0L155.9 173.4L155.9 157.6L141.3 149.2Z" fill-opacity=".7"/><path d="M155.9 140.8L170.4 149.2L155.9 157.6L141.3 149.2Z"/></g><g fill="#e3eafb"><path d="M222.4 165.0L207.8 173.4L207.8 145.1L222.4 136.7Z" fill-opacity=".45"/><path d="M193.3 165.0L207.8 173.4L207.8 145.1L193.3 136.7Z" fill-opacity=".7"/><path d="M207.8 128.3L222.4 136.7L207.8 145.1L193.3 136.7Z"/></g><g fill="#e3eafb"><path d="M40.5 180.0L26.0 188.4L26.0 172.2L40.5 163.8Z" fill-opacity=".45"/><path d="M11.4 180.0L26.0 188.4L26.0 172.2L11.4 163.8Z" fill-opacity=".7"/><path d="M26.0 155.4L40.5 163.8L26.0 172.2L11.4 163.8Z"/></g><g fill="#e3eafb"><path d="M92.5 180.0L77.9 188.4L77.9 175.4L92.5 167.0Z" fill-opacity=".45"/><path d="M63.4 180.0L77.9 188.4L77.9 175.4L63.4 167.0Z" fill-opacity=".7"/><path d="M77.9 158.6L92.5 167.0L77.9 175.4L63.4 167.0Z"/></g><g fill="#e3eafb"><path d="M144.5 180.0L129.9 188.4L129.9 165.9L144.5 157.5Z" fill-opacity=".45"/><path d="M115.4 180.0L129.9 188.4L129.9 165.9L115.4 157.5Z" fill-opacity=".7"/><path d="M129.9 149.1L144.5 157.5L129.9 165.9L115.4 157.5Z"/></g><g fill="#e3eafb"><path d="M196.4 180.0L181.9 188.4L181.9 143.9L196.4 135.5Z" fill-opacity=".45"/><path d="M167.3 180.0L181.9 188.4L181.9 143.9L167.3 135.5Z" fill-opacity=".7"/><path d="M181.9 127.1L196.4 135.5L181.9 143.9L167.3 135.5Z"/></g><g fill="#e3eafb"><path d="M66.5 195.0L52.0 203.4L52.0 183.7L66.5 175.3Z" fill-opacity=".45"/><path d="M37.4 195.0L52.0 203.4L52.0 183.7L37.4 175.3Z" fill-opacity=".7"/><path d="M52.0 166.9L66.5 175.3L52.0 183.7L37.4 175.3Z"/></g><g fill="#e3eafb"><path d="M118.5 195.0L103.9 203.4L103.9 176.6L118.5 168.2Z" fill-opacity=".45"/><path d="M89.4 195.0L103.9 203.4L103.9 176.6L89.4 168.2Z" fill-opacity=".7"/><path d="M103.9 159.8L118.5 168.2L103.9 176.6L89.4 168.2Z"/></g><g fill="#1d4ed8"><path d="M170.4 195.0L155.9 203.4L155.9 150.8L170.4 142.4Z" fill-opacity=".45"/><path d="M141.3 195.0L155.9 203.4L155.9 150.8L141.3 142.4Z" fill-opacity=".7"/><path d="M155.9 134.0L170.4 142.4L155.9 150.8L141.3 142.4Z"/></g><g fill="#e3eafb"><path d="M92.5 210.0L77.9 218.4L77.9 189.2L92.5 180.8Z" fill-opacity=".45"/><path d="M63.4 210.0L77.9 218.4L77.9 189.2L63.4 180.8Z" fill-opacity=".7"/><path d="M77.9 172.4L92.5 180.8L77.9 189.2L63.4 180.8Z"/></g><g fill="#e3eafb"><path d="M144.5 210.0L129.9 218.4L129.9 168.3L144.5 159.9Z" fill-opacity=".45"/><path d="M115.4 210.0L129.9 218.4L129.9 168.3L115.4 159.9Z" fill-opacity=".7"/><path d="M129.9 151.5L144.5 159.9L129.9 168.3L115.4 159.9Z"/></g><g fill="#e3eafb"><path d="M118.5 225.0L103.9 233.4L103.9 191.3L118.5 182.9Z" fill-opacity=".45"/><path d="M89.4 225.0L103.9 233.4L103.9 191.3L89.4 182.9Z" fill-opacity=".7"/><path d="M103.9 174.5L118.5 182.9L103.9 191.3L89.4 182.9Z"/></g></svg>
